<svg data-v-bb8a91fa="" width="42" height="42" viewBox="0 0 42 42" fill="none" xmlns="http://www.w3.org/2000/svg" class="user-stats__item__icon-container__icon"><path data-v-bb8a91fa="" d="M20.9996 2.09998C19.0227 2.09998 17.6396 3.92105 17.6396 5.87998C17.6396 7.8389 19.0227 9.65998 20.9996 9.65998C22.9766 9.65998 24.3596 7.8389 24.3596 5.87998C24.3596 3.92105 22.9766 2.09998 20.9996 2.09998ZM20.9996 4.61998C21.3425 4.61998 21.8396 5.0564 21.8396 5.87998C21.8396 6.70355 21.3425 7.13998 20.9996 7.13998C20.6567 7.13998 20.1596 6.70355 20.1596 5.87998C20.1596 5.0564 20.6567 4.61998 20.9996 4.61998ZM20.9996 10.08C19.0522 10.08 17.2754 10.5246 15.8941 11.3531C14.5111 12.1816 13.4397 13.5089 13.4397 15.12V18.9C13.4397 19.5956 14.0041 20.16 14.6997 20.16H27.2997C27.9953 20.16 28.5597 19.5956 28.5597 18.9V15.12C28.5597 13.5089 27.4884 12.1816 26.1053 11.3531C24.7239 10.5245 22.947 10.08 20.9996 10.08ZM20.9996 12.6C22.5418 12.6 23.9101 12.9822 24.8059 13.5187C25.7017 14.0552 26.0396 14.636 26.0396 15.12V17.64H15.9596V15.12C15.9596 14.636 16.2976 14.0552 17.1934 13.5187C18.0892 12.9823 19.4574 12.6 20.9996 12.6ZM9.65952 21.8402C7.68259 21.8402 6.29953 23.6613 6.29953 25.6202C6.29953 27.5791 7.68259 29.4002 9.65952 29.4002C11.6365 29.4002 13.0195 27.5791 13.0195 25.6202C13.0195 23.6613 11.6365 21.8402 9.65952 21.8402ZM32.3395 21.8402C30.3626 21.8402 28.9795 23.6613 28.9795 25.6202C28.9795 27.5791 30.3626 29.4002 32.3395 29.4002C34.3165 29.4002 35.6995 27.5791 35.6995 25.6202C35.6995 23.6613 34.3165 21.8402 32.3395 21.8402ZM9.65952 24.3602C10.0024 24.3602 10.4995 24.7966 10.4995 25.6202C10.4995 26.4438 10.0024 26.8802 9.65952 26.8802C9.31664 26.8802 8.81953 26.4438 8.81953 25.6202C8.81953 24.7966 9.31664 24.3602 9.65952 24.3602ZM32.3395 24.3602C32.6824 24.3602 33.1795 24.7966 33.1795 25.6202C33.1795 26.4438 32.6824 26.8802 32.3395 26.8802C31.9966 26.8802 31.4995 26.4438 31.4995 25.6202C31.4995 24.7966 31.9966 24.3602 32.3395 24.3602ZM9.65952 29.8202C7.71211 29.8202 5.9353 30.2648 4.55401 31.0933C3.17095 31.9218 2.09961 33.2491 2.09961 34.8602V38.6402C2.09961 39.3358 2.66401 39.9002 3.35961 39.9002H15.9596C16.6552 39.9002 17.2196 39.3358 17.2196 38.6402V34.8602C17.2196 33.2491 16.1483 31.9218 14.7652 31.0933C13.3838 30.2648 11.6069 29.8202 9.65952 29.8202ZM32.3395 29.8202C30.3921 29.8202 28.6153 30.2648 27.234 31.0933C25.8509 31.9218 24.7796 33.2491 24.7796 34.8602V38.6402C24.7796 39.3358 25.344 39.9002 26.0396 39.9002H38.6396C39.3352 39.9002 39.8996 39.3358 39.8996 38.6402V34.8602C39.8996 33.2491 38.8283 31.9218 37.4452 31.0933C36.0638 30.2648 34.2869 29.8202 32.3395 29.8202ZM9.65952 32.3402C11.2017 32.3402 12.57 32.7225 13.4658 33.2589C14.3616 33.7954 14.6995 34.3762 14.6995 34.8602V37.3802H4.61953V34.8602C4.61953 34.3762 4.95749 33.7954 5.85328 33.2589C6.74906 32.7225 8.11733 32.3402 9.65952 32.3402ZM32.3395 32.3402C33.8817 32.3402 35.25 32.7225 36.1458 33.2589C37.0415 33.7954 37.3795 34.3762 37.3795 34.8602V37.3802H27.2995V34.8602C27.2995 34.3762 27.6375 33.7954 28.5333 33.2589C29.4291 32.7225 30.7973 32.3402 32.3395 32.3402Z" fill="#EB008C"></path> <path data-v-bb8a91fa="" d="M20.0938 21.3562C20.3284 21.115 20.65 20.9772 20.9863 20.9739C21.3275 20.9707 21.6558 21.1052 21.8953 21.348C22.1348 21.5891 22.2661 21.9189 22.2595 22.2602V25.7383L25.8426 27.8908C26.1428 28.0548 26.3627 28.3337 26.4513 28.6635C26.5415 28.9932 26.4939 29.3443 26.32 29.6397C26.1445 29.9333 25.859 30.1433 25.526 30.2221C25.1945 30.3008 24.8435 30.2401 24.5564 30.0564L20.9995 27.917L17.4426 30.0564C17.1555 30.2401 16.8044 30.3008 16.473 30.2221C16.1399 30.1433 15.8544 29.9333 15.6789 29.6397C15.505 29.3444 15.4574 28.9933 15.5477 28.6635C15.6362 28.3337 15.8561 28.0548 16.1563 27.8908L19.7394 25.7383V22.2602C19.7329 21.9239 19.8608 21.599 20.0938 21.3562Z" fill="#00B49B"></path></svg>